<svg width="18" height="8" viewBox="0 0 18 8" fill="none" xmlns="http://www.w3.org/2000/svg">
<path fill-rule="evenodd" clip-rule="evenodd" d="M14.146 0.645917C14.1925 0.599354 14.2476 0.562411 14.3084 0.537204C14.3691 0.511998 14.4342 0.499023 14.5 0.499023C14.5658 0.499023 14.6309 0.511998 14.6916 0.537204C14.7524 0.562411 14.8076 0.599354 14.854 0.645917L17.854 3.64592C17.9006 3.69236 17.9375 3.74754 17.9627 3.80828C17.9879 3.86903 18.0009 3.93415 18.0009 3.99992C18.0009 4.06568 17.9879 4.13081 17.9627 4.19155C17.9375 4.2523 17.9006 4.30747 17.854 4.35392L14.854 7.35392C14.7601 7.4478 14.6328 7.50055 14.5 7.50055C14.3672 7.50055 14.2399 7.4478 14.146 7.35392C14.0521 7.26003 13.9994 7.13269 13.9994 6.99992C13.9994 6.86714 14.0521 6.7398 14.146 6.64592L16.793 3.99992L14.146 1.35392C14.0994 1.30747 14.0625 1.2523 14.0373 1.19155C14.0121 1.13081 13.9991 1.06568 13.9991 0.999917C13.9991 0.93415 14.0121 0.869028 14.0373 0.808283C14.0625 0.747538 14.0994 0.692363 14.146 0.645917Z" fill="#1D24AA"/>
<path fill-rule="evenodd" clip-rule="evenodd" d="M0 4.13249C0 3.99988 0.0526785 3.8727 0.146447 3.77893C0.240215 3.68516 0.367392 3.63249 0.5 3.63249L17 3.49988C17.1326 3.49988 17.2598 3.55256 17.3536 3.64632C17.4473 3.74009 17.5 3.86727 17.5 3.99988C17.5 4.13249 17.4473 4.25966 17.3536 4.35343C17.2598 4.4472 17.1326 4.49988 17 4.49988L0.5 4.63249C0.367392 4.63249 0.240215 4.57981 0.146447 4.48604C0.0526785 4.39227 0 4.26509 0 4.13249Z" fill="#1D24AA"/>
</svg>
