<svg width="24" height="24" viewBox="0 0 24 24" fill="none" xmlns="http://www.w3.org/2000/svg">
<path d="M6.03746 18.1874C5.84996 18.1499 5.69996 18.1124 5.51246 18.0374C5.32496 17.9624 5.17496 17.9249 5.02496 17.8499C4.68746 17.6999 4.38746 17.5124 4.08746 17.2874C3.48746 16.8749 2.99996 16.3124 2.62496 15.6374C2.24996 14.9999 2.02496 14.2499 1.98746 13.5374C1.94996 13.1624 1.98746 12.8249 2.02496 12.4499C2.06246 12.2624 2.09996 12.1124 2.13746 11.9249C2.17496 11.7374 2.24996 11.5874 2.28746 11.3999L2.32496 11.9249C2.32496 12.1124 2.36246 12.2624 2.39996 12.4499C2.43746 12.7874 2.51246 13.1249 2.58746 13.4249C2.73746 14.0624 2.96246 14.6624 3.29996 15.2249C3.63746 15.7874 4.01246 16.3124 4.49996 16.7999C4.72496 17.0249 4.98746 17.2499 5.24996 17.4749C5.36246 17.5874 5.51246 17.6999 5.66246 17.8124L6.03746 18.1874Z" fill="#42ADE2"/>
<path d="M5.925 19.5374C5.8125 19.6124 5.6625 19.6499 5.5125 19.6874C5.3625 19.7249 5.25 19.7624 5.1 19.7624C4.8375 19.7999 4.5375 19.8374 4.2375 19.7999C3.675 19.7624 3.075 19.6124 2.5875 19.3499C2.0625 19.0874 1.6125 18.6749 1.3125 18.1874C1.1625 17.9624 1.0125 17.6999 0.9 17.4374C0.8625 17.3249 0.825 17.1749 0.7875 17.0249C0.7875 16.9124 0.75 16.7999 0.75 16.6499C0.8625 16.7624 0.9375 16.8374 1.0125 16.9499C1.125 17.0624 1.2 17.1749 1.275 17.2499C1.4625 17.4374 1.6125 17.6249 1.8 17.7749C2.175 18.1124 2.55 18.4124 3 18.6374C3.4125 18.8624 3.9 19.0499 4.35 19.1999C4.575 19.2749 4.8375 19.3124 5.1 19.3874C5.2125 19.4249 5.3625 19.4249 5.475 19.4624C5.6625 19.4999 5.775 19.4999 5.925 19.5374Z" fill="#42ADE2"/>
<path d="M14.4 1.3125C14.5875 1.35 14.7375 1.425 14.925 1.5C15.1125 1.575 15.2625 1.65 15.4125 1.725C15.75 1.9125 16.05 2.1 16.35 2.325C16.95 2.775 17.4375 3.375 17.775 4.05C18.1125 4.725 18.3 5.475 18.3 6.1875C18.3 6.5625 18.2625 6.9 18.1875 7.275C18.15 7.4625 18.1125 7.6125 18.0375 7.8C17.9625 7.9875 17.925 8.1375 17.85 8.2875L17.8125 7.7625C17.8125 7.575 17.8125 7.425 17.775 7.2375L17.6625 6.225C17.55 5.5875 17.325 4.95 17.025 4.35C16.725 3.75 16.35 3.225 15.9 2.7375C15.675 2.475 15.4125 2.25 15.1875 1.9875C15.075 1.875 14.925 1.7625 14.775 1.65L14.4 1.3125Z" fill="#42ADE2"/>
<path d="M17.6625 1.16248C17.8125 1.19998 17.925 1.23748 18.0375 1.31248C18.15 1.34998 18.3 1.42498 18.4125 1.49998C18.6375 1.64998 18.8625 1.79998 19.0875 1.98748C19.5 2.36248 19.8375 2.81248 20.025 3.33748C20.25 3.86248 20.325 4.42498 20.25 4.98748C20.2125 5.24998 20.1375 5.51248 20.0625 5.77498C20.025 5.88748 19.95 6.03748 19.9125 6.14998C19.8375 6.26248 19.8 6.37498 19.6875 6.48748V5.73748C19.6875 5.47498 19.65 5.24998 19.65 5.02498C19.575 4.53748 19.5 4.08748 19.3125 3.67498C19.125 3.22498 18.9 2.84998 18.6375 2.43748C18.4875 2.24998 18.3375 2.02498 18.1875 1.83748C18.1125 1.72498 18.0375 1.64998 17.925 1.53748C17.85 1.34998 17.7375 1.23748 17.6625 1.16248Z" fill="#42ADE2"/>
<path d="M3.74998 6.74995C2.99998 7.08745 2.73748 7.98745 3.07498 8.73745L7.79998 18.6L10.425 17.3625L5.69998 7.46245C5.36248 6.71245 4.49998 6.37495 3.74998 6.74995Z" fill="#FFE1BD"/>
<path d="M16.1625 14.5875L18.9375 13.275L13.5375 2.02495C13.1625 1.27495 12.2625 0.937453 11.475 1.31245C10.725 1.68745 10.3875 2.58745 10.7625 3.37495L16.1625 14.5875Z" fill="#FFE1BD"/>
<path d="M11.5125 1.27502C11.4375 1.31252 11.3625 1.35002 11.2875 1.42502C12 1.23752 12.75 1.57502 13.0875 2.25002L18.4875 13.5L18.975 13.275L13.575 2.02502C13.2 1.23752 12.3 0.900022 11.5125 1.27502Z" fill="#E6B796"/>
<path d="M10.425 17.3251L13.3125 15.9376L7.80003 4.46259C7.42503 3.67509 6.45003 3.30009 5.66253 3.67509C4.87503 4.05009 4.53753 5.02509 4.91253 5.81259L10.425 17.3251Z" fill="#FFE1BD"/>
<path d="M5.6625 3.71259C5.5875 3.75009 5.5125 3.78759 5.4375 3.86259C6.15 3.67509 6.975 4.01259 7.3125 4.72509L10.725 11.8876L11.55 12.3751L7.8 4.50009C7.425 3.67509 6.4875 3.33759 5.6625 3.71259Z" fill="#E6B796"/>
<path d="M12.8625 15.0375L15.75 13.65L10.2375 2.17501C9.86253 1.38751 8.88753 1.01251 8.10003 1.42501C7.31253 1.80001 6.97503 2.77501 7.35003 3.56251L12.8625 15.0375Z" fill="#FFE1BD"/>
<path d="M8.1 1.38751C8.025 1.42501 7.95 1.50001 7.875 1.53751C8.5875 1.35001 9.4125 1.68751 9.75 2.40001L13.6125 10.5L14.4375 10.9875L10.2375 2.17501C9.8625 1.35001 8.8875 1.01251 8.1 1.38751Z" fill="#E6B796"/>
<path d="M3.74996 6.75C3.67496 6.7875 3.59996 6.825 3.52496 6.9C4.19996 6.7125 4.91246 7.05 5.21246 7.725L8.02496 13.6125L8.84996 14.1L5.69996 7.5C5.36246 6.7125 4.49996 6.375 3.74996 6.75Z" fill="#E6B796"/>
<path d="M22.8 5.62497C21.7875 4.83747 20.1375 5.69997 19.3125 8.39997C18.75 10.275 18.675 10.8375 17.475 11.4L16.8 10.0125C16.8 10.0125 6.14996 15.15 6.56246 15.975C6.56246 15.975 7.83746 19.95 10.0125 21.7875C13.2375 24.5625 20.775 21.6 21.1125 14.4375C21.3 10.275 23.8875 6.48747 22.8 5.62497Z" fill="#FFE1BD"/>
<path d="M22.8 5.62493C22.6125 5.47493 22.3875 5.39993 22.1625 5.36243C22.2 5.39993 22.275 5.39993 22.3125 5.43743C23.4375 6.29993 22.275 8.28743 21.6375 10.0874C21.1125 11.5124 20.6625 12.9749 20.7375 14.3999C21.0375 20.6249 14.775 23.5874 11.025 22.4624C14.7 23.9999 21.525 21.0749 21.225 14.5874C21.15 13.1624 21.5625 11.7749 22.125 10.2749C22.725 8.47493 23.8875 6.48743 22.8 5.62493Z" fill="#E6B796"/>
<path d="M17.8125 11.25C15.4875 11.5125 12.075 14.85 14.475 18.4875C12.7125 14.8125 15.6 12.3375 17.4375 11.475C17.625 11.325 17.8125 11.25 17.8125 11.25Z" fill="#E6B796"/>
</svg>
